<?xml version="1.0" standalone="no"?>
<!DOCTYPE svg PUBLIC "-//W3C//DTD SVG 20010904//EN"
 "http://www.w3.org/TR/2001/REC-SVG-20010904/DTD/svg10.dtd">
<svg version="1.0" xmlns="http://www.w3.org/2000/svg"
 width="609.000000pt" height="640.000000pt" viewBox="0 0 609.000000 640.000000"
 preserveAspectRatio="xMidYMid meet">

<g transform="translate(0.000000,640.000000) scale(0.100000,-0.100000)"
fill="#000000" stroke="none">
<path d="M1115 6379 c-5 -5 -73 -71 -150 -147 -363 -355 -624 -766 -790 -1242
-80 -232 -147 -546 -163 -768 -10 -154 -7 -500 7 -617 86 -744 402 -1405 921
-1925 339 -340 732 -591 1184 -754 113 -42 373 -116 404 -116 7 0 20 19 29 43
34 88 132 267 201 368 190 279 452 509 750 658 103 52 202 94 202 87 0 -2 -29
-21 -65 -41 -228 -127 -479 -369 -648 -625 -224 -340 -349 -802 -322 -1194 8
-123 -10 -116 145 -59 198 74 427 204 576 328 157 131 349 345 433 483 19 29
37 49 43 45 6 -3 8 -1 4 5 -3 6 18 59 48 119 93 187 160 389 186 568 19 132
11 120 82 123 93 4 305 31 371 48 32 7 69 14 81 14 30 0 302 75 379 105 34 12
107 40 162 61 55 21 169 73 254 115 84 43 158 76 164 72 6 -3 7 -1 3 5 -8 14
30 36 46 26 6 -4 8 -3 4 4 -8 13 60 56 74 47 6 -4 9 -1 8 7 -2 7 5 12 14 12
10 -1 16 3 15 10 -1 6 6 10 15 10 10 -1 16 2 13 6 -3 5 30 33 72 63 102 72
146 119 178 189 39 85 51 165 37 240 -25 135 -108 243 -230 301 l-67 32 -2175
5 -2175 6 -85 21 c-172 44 -277 89 -410 177 -218 146 -392 373 -474 620 -36
109 -35 116 12 105 154 -36 468 -50 642 -29 374 47 739 199 1020 426 100 81
261 247 248 255 -39 21 -244 82 -350 104 -458 92 -928 25 -1336 -191 -57 -29
-129 -71 -160 -92 -31 -21 -62 -42 -68 -45 -7 -4 43 48 111 116 67 67 150 159
183 204 183 243 303 511 369 820 25 118 27 146 27 368 1 158 -4 272 -13 333
-14 95 -19 106 -36 91z m3820 -3794 c33 -32 32 -68 -1 -94 -33 -26 -55 -26
-85 -3 -45 38 -16 122 43 122 10 0 30 -11 43 -25z"/>
<path d="M4405 4635 c-38 -37 -35 -95 6 -129 17 -15 43 -26 59 -26 16 0 42 11
59 26 41 34 44 92 6 129 -34 35 -96 35 -130 0z"/>
<path d="M4265 4260 c-44 -10 -69 -25 -103 -64 -72 -83 -44 -223 55 -272 123
-61 263 26 263 162 0 111 -108 199 -215 174z"/>
<path d="M4760 4031 c-24 -13 -41 -32 -54 -64 -18 -44 -18 -48 -2 -91 21 -54
66 -86 120 -86 100 0 159 91 118 183 -32 71 -111 97 -182 58z"/>
<path d="M4249 3715 c-72 -40 -55 -151 26 -171 60 -15 124 50 109 110 -14 56
-86 89 -135 61z"/>
<path d="M4552 3479 c-43 -28 -62 -67 -62 -125 0 -149 191 -199 271 -72 15 26
19 45 16 86 -3 45 -9 59 -40 90 -32 31 -43 36 -94 39 -47 3 -64 0 -91 -18z"/>
</g>
</svg>
