<?xml version="1.0" standalone="no"?>
<!DOCTYPE svg PUBLIC "-//W3C//DTD SVG 20010904//EN"
 "http://www.w3.org/TR/2001/REC-SVG-20010904/DTD/svg10.dtd">
<svg version="1.0" xmlns="http://www.w3.org/2000/svg"
 width="640.000000pt" height="404.000000pt" viewBox="0 0 640.000000 404.000000"
 preserveAspectRatio="xMidYMid meet">

<g transform="translate(0.000000,404.000000) scale(0.100000,-0.100000)"
fill="#000000" stroke="none">
<path d="M1997 4029 c-9 -6 -25 -9 -35 -8 -20 2 -52 -10 -52 -20 0 -4 12 -13
26 -20 22 -10 31 -9 51 4 38 25 47 64 10 44z"/>
<path d="M2206 3953 c-1 -1 -16 -3 -33 -5 -37 -3 -35 -11 7 -28 16 -7 30 -17
30 -22 0 -11 79 43 80 55 0 6 -77 6 -84 0z"/>
<path d="M5305 3628 c-56 -29 -179 -157 -246 -255 l-56 -82 -33 81 c-39 96
-90 158 -129 158 -60 0 -122 -104 -185 -312 -44 -147 -97 -398 -97 -455 1 -12
-3 -24 -8 -28 -5 -3 -7 -14 -4 -25 3 -11 0 -26 -6 -33 -6 -8 -9 -16 -6 -19 3
-3 -1 -44 -8 -91 -12 -74 -23 -406 -13 -396 2 2 25 67 52 144 26 77 56 158 66
180 10 22 15 31 11 20 -4 -11 -9 -141 -11 -290 l-2 -270 79 -99 c44 -55 78
-103 75 -108 -9 -13 4 -9 65 21 91 46 395 179 521 228 63 24 250 91 415 147
356 122 439 156 518 210 137 94 128 193 -35 356 -182 182 -315 250 -488 250
-101 0 -175 -20 -292 -78 l-97 -49 19 36 c58 115 94 331 88 531 -6 191 -34
251 -120 250 -18 -1 -51 -10 -73 -22z"/>
<path d="M2490 2308 c-355 -22 -674 -42 -710 -45 -36 -2 -102 -5 -147 -6 -56
-1 -83 -6 -83 -14 0 -13 182 -143 201 -143 6 0 -6 -14 -27 -31 -40 -31 -94
-103 -94 -123 1 -6 8 3 17 19 65 125 216 178 338 121 156 -72 202 -259 101
-402 l-28 -39 27 30 c34 38 64 102 66 140 1 17 3 23 6 15 4 -17 473 -332 507
-341 11 -3 -103 -25 -254 -50 -151 -24 -263 -45 -247 -47 31 -4 31 -3 15 -37
-8 -19 -17 -25 -31 -21 -44 11 -1 -13 685 -383 38 -20 68 -39 68 -42 0 -3
-109 -47 -242 -99 -134 -51 -246 -95 -250 -99 -4 -3 145 -113 330 -244 l337
-238 3 296 c1 162 4 295 6 295 2 0 345 -182 761 -405 417 -223 759 -404 760
-403 1 2 -161 286 -360 633 -200 347 -361 633 -360 636 2 3 69 30 149 60 80
30 145 57 143 60 -1 4 -222 219 -490 478 -446 431 -490 471 -520 470 -18 -1
-322 -19 -677 -41z m-333 -430 c-3 -8 -6 -5 -6 6 -1 11 2 17 5 13 3 -3 4 -12
1 -19z"/>
<path d="M1920 1902 c0 -36 -28 -62 -67 -62 -30 0 -63 26 -63 48 0 21 -18 13
-41 -19 -32 -46 -36 -108 -10 -161 29 -59 63 -81 133 -86 50 -4 64 -1 97 21
45 30 71 80 71 137 0 50 -19 89 -60 124 -41 34 -60 34 -60 -2z m79 -71 c13
-24 -8 -55 -34 -50 -28 6 -42 34 -26 53 18 22 48 20 60 -3z"/>
<path d="M1613 1850 c0 -25 2 -35 4 -22 2 12 2 32 0 45 -2 12 -4 2 -4 -23z"/>
<path d="M1275 1742 c-33 -21 -148 -87 -255 -147 -107 -60 -197 -112 -200
-115 -3 -4 -35 -24 -72 -46 -62 -35 -83 -54 -59 -54 8 0 37 -97 33 -112 -1 -4
19 -1 45 7 25 8 50 12 54 9 4 -2 10 0 14 6 3 5 16 10 27 10 11 0 105 24 207
54 102 30 240 69 306 86 66 18 124 36 129 40 7 7 -129 255 -158 287 -9 10 -25
4 -71 -25z"/>
<path d="M2029 1633 c-13 -16 -12 -17 4 -4 9 7 17 15 17 17 0 8 -8 3 -21 -13z"/>
<path d="M1863 1583 c15 -2 37 -2 50 0 12 2 0 4 -28 4 -27 0 -38 -2 -22 -4z"/>
</g>
</svg>
